<svg width="209" height="187" viewBox="0 0 209 187" fill="none" xmlns="http://www.w3.org/2000/svg">
<path d="M110.559 182.92C107.099 184.142 101.401 184.142 97.9415 182.92C68.434 172.834 2.5 130.76 2.5 59.4479C2.5 27.9686 27.8358 2.5 59.073 2.5C77.5915 2.5 93.9733 11.465 104.25 25.3199C114.527 11.465 131.01 2.5 149.427 2.5C180.664 2.5 206 27.9686 206 59.4479C206 130.76 140.066 172.834 110.559 182.92Z" fill="#44BDB6" stroke="#44BDB6" stroke-width="5" stroke-linecap="round" stroke-linejoin="round"/>
<path d="M74.8346 67.7074C74.4457 67.6701 73.8019 68.2932 73.4261 68.4873C73.1337 68.6382 72.4849 68.9668 72.1655 68.9631C71.9617 68.9608 71.524 68.7457 71.3125 68.6795C71.2017 68.7169 71.1107 68.7492 71.0198 68.825C70.854 68.9634 70.7412 69.1386 70.7288 69.3584C70.7079 69.7311 71.0239 70.0039 71.2634 70.2437C71.6534 70.5181 72.1123 70.6803 72.5888 70.7097C73.2633 70.7509 74.0071 70.5592 74.513 70.0986C74.947 69.7033 75.1517 69.1794 75.1626 68.5986C75.1693 68.2426 75.0839 67.9628 74.8346 67.7074Z" fill="white"/>
<path d="M128.506 85.6658L128.428 85.6571C128.261 85.6641 128.198 85.6901 128.076 85.7901C128.073 85.8986 128.085 85.9851 128.149 86.0766C128.553 86.6471 129.321 87.0395 129.945 87.3065C132.547 88.4182 135.59 88.6569 138.375 89.009C138.548 88.9659 138.681 88.9346 138.825 88.8235L138.796 88.6796C138.46 88.3841 138.026 88.2537 137.606 88.1273C136.521 87.801 135.386 87.6997 134.273 87.5003C133.434 87.35 132.588 87.1691 131.769 86.9332C130.644 86.609 129.589 86.1001 128.506 85.6658Z" fill="white"/>
<path d="M74.0326 45.5235C73.9366 45.5092 73.8338 45.4933 73.7369 45.5029C73.5372 45.5226 73.328 45.6718 73.2173 45.8342C72.9523 46.2233 73.007 46.7265 72.951 47.1702C72.882 47.7155 72.7852 48.2804 72.6684 48.8169C72.3963 50.0656 71.981 51.2629 71.5476 52.4626C71.3434 53.028 70.7659 54.1632 70.9058 54.7202C71.0282 54.8738 71.1329 54.9023 71.3124 54.9561C71.4471 54.9911 71.5399 55.0033 71.6767 54.9657C72.0677 54.8583 72.3253 54.5692 72.5254 54.2339C72.8399 53.7073 73.0269 53.1417 73.2395 52.5698C73.6804 51.3842 74.0101 50.1681 74.2509 48.9267C74.3879 48.2219 74.5546 47.2638 74.3701 46.5585C74.2681 46.1686 74.344 45.8162 74.0326 45.5235Z" fill="white"/>
<path d="M116.925 92.0041L116.694 91.9532C116.525 92.0161 116.493 92.0059 116.404 92.1595C116.451 92.3602 116.523 92.4912 116.651 92.6535C117.074 93.19 117.631 93.6192 118.168 94.0341C120.161 95.5742 122.479 96.6391 124.847 97.4598C125.787 97.7854 126.7 98.1067 127.698 98.2056L127.848 98.1942C128.026 98.0457 127.816 97.8127 127.89 97.6112C127.921 97.5252 128.097 97.4737 128.154 97.317C127.905 96.8524 126.184 96.4836 125.633 96.2917C123.643 95.5991 121.62 94.8286 119.782 93.7902C118.802 93.2363 117.936 92.5098 116.925 92.0041Z" fill="white"/>
<path d="M58.8398 47.0148L58.6903 46.9937C58.5745 47.0358 58.4903 47.073 58.3958 47.1544C58.1449 47.3702 58.0258 47.5578 57.9911 47.8848C58.0996 48.2913 58.3685 48.6311 58.5859 48.9855C59.3839 50.2862 60.0578 51.6929 60.7011 53.0768C61.1104 53.9572 61.4916 54.8795 61.9839 55.7171C62.1814 56.0528 62.4441 56.2886 62.7331 56.5411L62.9645 56.6581C63.1377 56.7275 63.2441 56.785 63.4174 56.7152C63.4784 56.4253 63.396 56.1535 63.3328 55.8697C63.1926 55.2411 62.9841 54.6291 62.7674 54.0233C62.2356 52.5361 61.6123 51.0629 60.8953 49.6558C60.4216 48.726 59.8227 47.4809 58.8398 47.0148Z" fill="white"/>
<path d="M48.1184 54.4524L47.8759 54.4381C47.7277 54.5248 47.5981 54.6494 47.5345 54.8135C47.4623 54.9994 47.5146 55.1068 47.5877 55.2795C48.0621 55.6923 48.6985 55.9444 49.2437 56.2614C49.8145 56.5934 50.3266 57.0168 50.8134 57.4616C51.7804 58.3456 52.5236 59.466 53.2759 60.5317C53.7385 61.1873 54.1693 61.9308 54.8242 62.4157C55.1876 62.6846 55.6113 62.8226 56.0414 62.9388C56.1632 62.9453 56.3089 62.9409 56.4238 62.895C56.6127 62.8196 56.6916 62.7669 56.7586 62.581C56.6503 62.2075 56.4729 61.8978 56.2642 61.5731C55.7217 60.7288 55.0484 59.9533 54.4096 59.1804C52.6838 57.0932 50.8774 55.0577 48.1184 54.4524Z" fill="white"/>
<path d="M138.876 89.9534C138.599 89.8684 138.383 89.939 138.116 90.0346C137.599 90.2198 137.13 90.5818 136.623 90.8106C135.377 91.3733 133.953 91.7319 132.609 91.9759C129.716 92.5012 126.665 92.2779 123.824 91.5605C123.364 91.4441 122.906 91.3208 122.455 91.172C121.843 90.9702 121.265 90.737 120.61 90.7869L120.576 90.8855C120.708 91.1821 120.954 91.3053 121.216 91.4759C122.421 92.1672 123.688 92.6711 125.044 92.9845C128.208 93.7158 131.501 93.5231 134.598 92.5903C135.75 92.2433 136.854 91.8463 137.876 91.1986C138.285 90.9395 138.854 90.5685 138.966 90.0777L138.876 89.9534Z" fill="white"/>
<path d="M152.08 77.5875C151.893 77.6143 151.645 77.7841 151.476 77.8779C151.044 78.1186 150.62 78.3793 150.167 78.5818C149.603 78.8337 148.969 79.0119 148.369 79.16C147.992 80.6146 147.341 81.6336 146.177 82.6021C143.913 84.486 140.148 84.9989 137.291 84.749C135.537 84.5954 133.831 84.2014 132.082 84.0275C132.419 84.4204 132.732 84.6927 133.161 84.9766L134.252 85.4791C137.838 86.8648 142.326 87.1776 145.881 85.5781C147.943 84.6507 149.702 83.1758 150.936 81.2812C151.267 80.7732 151.575 80.2935 151.791 79.7247C152.015 79.1316 152.359 78.2043 152.08 77.5875Z" fill="white"/>
<path d="M122.94 115.244C122.828 115.209 122.777 115.213 122.662 115.222C122.469 115.332 122.392 115.402 122.268 115.586C122.246 115.777 122.24 115.939 122.319 116.118C122.598 116.752 123.101 117.32 123.497 117.884C124.214 118.904 124.924 119.934 125.609 120.975C126.92 122.969 128.202 124.984 129.497 126.989C130.997 129.312 132.423 131.662 134.206 133.785C135.06 134.802 136.086 135.95 137.351 136.441C137.949 136.673 138.418 136.617 138.996 136.372C139.391 136.104 139.672 135.793 139.983 135.433L139.758 135.452C139.59 135.465 139.405 135.489 139.239 135.45C138.98 135.389 138.698 135.185 138.474 135.043C137.831 134.636 137.303 134.123 136.77 133.585C135.337 132.141 134.164 130.445 133.007 128.78C132.162 127.563 131.303 126.35 130.432 125.149C128.852 122.97 127.226 120.821 125.641 118.644C125.114 117.921 124.621 117.18 124.082 116.464C123.735 116.003 123.437 115.559 122.94 115.244Z" fill="white"/>
<path d="M160.632 67.3406C159.876 68.0714 158.939 68.7896 158.006 69.2717C157.602 69.4805 157.179 69.6192 156.769 69.8114C156.738 69.8258 156.546 69.908 156.536 69.9219C156.484 69.9942 156.463 70.451 156.44 70.5696C156.258 71.512 155.718 72.5286 154.963 73.1475C153.622 74.247 152.102 74.9912 150.484 75.5957C146.807 76.9701 143.142 77.3421 139.247 77.3387C138.157 77.3378 137.015 77.3892 135.935 77.2556L135.843 77.2439C136.098 77.5083 136.332 77.7107 136.645 77.9045C138.031 78.6273 140.001 78.6451 141.543 78.6999C144.37 78.8004 147.177 78.2602 149.912 77.626C150.899 77.3971 151.851 77.2072 152.793 76.8156C154.491 76.1099 156.058 75.115 157.395 73.851C159.232 72.1136 160.566 69.9061 160.632 67.3406Z" fill="white"/>
<path d="M161.477 61.5728C160.881 62.1617 160.302 62.7542 159.618 63.2454C158.496 64.0522 157.213 64.7168 155.993 65.365C153.681 66.5934 151.264 67.8101 148.804 68.7112C147.08 69.3426 145.338 69.7893 143.581 70.3042C143.115 70.441 142.573 70.6451 142.331 71.0941C142.324 71.3765 142.29 71.399 142.484 71.6222C142.729 71.7807 143.04 71.7798 143.322 71.7795C144.341 71.7784 145.368 71.6244 146.376 71.4857C148.474 71.1967 150.499 70.7303 152.532 70.145C154.969 69.4431 157.887 68.4978 159.698 66.637C161.076 65.2218 161.487 63.4921 161.477 61.5728Z" fill="white"/>
<path d="M75.7865 62.5496C73.1009 62.5027 70.5147 62.9469 68.1725 64.3218C66.7691 65.1457 65.5793 66.2035 64.6196 67.5152C64.2442 68.0284 63.8565 68.6321 63.7095 69.2568C63.6292 69.5978 63.576 70.1045 63.7594 70.4007C64.0525 70.3504 64.271 69.8131 64.4138 69.5674C65.0611 68.4529 65.9213 67.5658 66.8841 66.7169C69.8667 64.0872 73.9749 63.5099 77.8111 63.776C82.5385 64.1041 86.4659 66.119 89.8785 69.3444C90.8237 70.2377 91.6794 71.2184 92.5378 72.1938C94.1936 74.1441 95.9043 76.0304 97.6713 77.8803C98.3778 78.62 99.0752 79.3516 99.8228 80.0516C100.336 80.5322 100.936 81.0876 101.603 81.3407C101.767 81.4031 101.803 81.4291 101.961 81.3588C102.042 81.2402 102.089 81.1847 102.101 81.0359C102.12 80.8017 101.665 80.4537 101.494 80.2922C97.8141 76.8302 94.8315 72.7376 91.3168 69.1233C88.0888 65.8039 83.9752 63.364 79.3397 62.7214C78.1675 62.559 76.9679 62.567 75.7865 62.5496Z" fill="white"/>
<path d="M83.2334 91.942L83.1544 91.9502C83.0598 91.9724 82.923 92.0438 82.8713 92.123C82.767 92.2827 82.7687 92.5 82.8011 92.6834C82.9607 93.5847 83.6414 94.4502 84.1001 95.2269C85.1621 97.0242 86.363 98.6678 87.6349 100.32C90.4819 104.018 93.7427 107.358 97.5123 110.119C102.97 114.118 109.264 116.709 115.728 118.57C117.747 119.151 120.165 119.904 122.285 119.579L122.6 119.444C122.765 119.338 122.807 119.18 122.86 119.004C122.616 118.781 121.492 118.794 121.087 118.715C119.043 118.315 117.025 117.817 115.022 117.246C109.09 115.555 103.384 113.022 98.3966 109.361C95.376 107.145 92.4827 104.319 90.1395 101.391C88.8727 99.8073 87.6527 98.1788 86.5277 96.4913C85.6569 95.1851 84.8738 93.7844 83.917 92.541C83.713 92.2757 83.5497 92.0654 83.2334 91.942Z" fill="white"/>
<path d="M63.542 71.0508C61.7313 71.0095 59.893 71.5244 58.5439 72.7835C58.0305 73.2625 57.6363 73.798 57.08 74.2473C58.9408 75.8823 61.1933 76.7222 63.6398 76.9283C63.967 76.9557 64.5473 76.7962 64.8142 76.9219C65.6201 77.3014 66.3637 78.0308 67.1189 78.531C68.6723 79.5599 70.265 80.3784 71.9798 81.1002L75.0675 82.1239L75.6099 81.569L65.7514 76.4558C66.2279 76.2383 66.7924 76.0884 67.2356 75.8162C67.5746 75.6082 67.8374 75.2059 67.9119 74.8167C68.0289 74.2044 67.5932 73.4816 67.2389 73.0068C66.4172 71.9057 64.8669 71.234 63.542 71.0508Z" fill="white"/>
<path d="M129.386 120.588L129.248 120.552C128.992 120.626 128.779 120.865 128.582 121.04C129.621 122.246 131.165 123.205 132.435 124.155C135.286 126.291 138.198 128.345 141.032 130.504C144.285 132.98 147.498 135.517 150.594 138.189C151.447 138.925 152.232 139.739 153.09 140.479C152.459 140.822 151.565 141.392 150.824 141.379C150.48 141.373 150.105 141.183 149.807 141.026C148.027 140.086 146.829 138.191 145.622 136.643C145.068 135.932 144.486 135.245 143.928 134.538C143.128 133.524 142.107 131.964 140.804 131.604C140.367 131.483 140.147 131.52 139.758 131.763C139.356 132.015 139.115 132.403 139.013 132.859C138.841 133.63 139.166 134.166 139.572 134.785C139.838 134.466 140.11 134.256 140.449 134.024C141.132 134.516 141.714 135.187 142.292 135.797C143.306 136.895 144.361 137.955 145.377 139.051C146.008 139.732 146.628 140.423 147.258 141.105C147.485 141.35 147.769 141.732 148.052 141.907C149.047 142.523 150.234 142.539 151.342 142.255C152.457 141.971 153.725 141.233 154.888 141.345C155.57 141.411 156.224 141.609 156.9 141.68C158.364 141.833 159.521 141.452 160.664 140.551C159.516 140.414 158.333 140.901 157.166 140.654C155.873 140.381 154.719 139.766 153.621 139.044C151.461 137.624 149.567 135.807 147.547 134.201C146.137 133.08 144.736 131.942 143.301 130.851C140.512 128.728 137.647 126.708 134.823 124.633C133.825 123.899 132.809 123.177 131.827 122.423C131.027 121.809 130.243 121.121 129.386 120.588Z" fill="white"/>
<path d="M160.289 60.1885C160.23 60.173 160.216 60.1665 160.146 60.1649C159.56 60.1517 158.788 60.4261 158.251 60.633C156.928 61.142 155.679 61.8281 154.402 62.4375C152.331 63.4259 150.246 64.3711 148.125 65.2479C145.697 66.2518 143.222 67.1847 140.742 68.055C135.143 70.0199 129.524 71.9264 123.921 73.8829C120.291 75.1507 116.62 76.3556 113.045 77.7741C111.325 78.4567 109.569 79.1257 107.95 80.0279C107.561 80.2441 107.054 80.4737 106.747 80.7978L106.872 80.8685C108.135 81.0124 109.603 80.8429 110.829 80.51C113.14 79.8829 115.395 78.9362 117.64 78.1045C121.294 76.7503 124.95 75.4005 128.6 74.0345C132.097 72.726 135.6 71.4322 139.114 70.1692C142.097 69.0967 145.093 68.0713 148.021 66.852C151.802 65.2776 155.42 63.4181 158.93 61.3107C159.305 61.0851 160.266 60.6715 160.426 60.2837L160.289 60.1885Z" fill="white"/>
<path d="M107.594 81.8754C107.499 81.8532 107.501 81.8379 107.417 81.8669C107.085 81.9808 106.845 82.3391 106.695 82.6372C106.402 83.2201 106.36 83.8083 106.376 84.4495C106.417 86.1795 106.908 88.0173 107.432 89.6599C108.56 93.1892 110.305 96.4807 112.466 99.4854C113.421 100.813 114.498 102.082 115.539 103.345C117.297 105.481 119.088 107.579 120.958 109.62C121.914 110.664 122.913 111.67 123.884 112.7C124.997 113.88 125.869 115.26 127.053 116.375C127.883 117.156 128.859 117.811 129.774 118.489C130.748 119.209 131.705 119.961 132.657 120.711C134.282 121.99 135.879 123.308 137.531 124.552C141.493 127.538 145.57 130.382 149.622 133.245C150.64 133.964 151.667 134.672 152.669 135.412C153.751 136.212 154.822 137.048 155.95 137.78C156.795 138.328 157.725 138.808 158.621 139.27C159.056 139.495 159.971 139.96 160.454 139.77C160.579 139.721 160.557 139.712 160.609 139.603C160.479 139.519 160.369 139.425 160.252 139.324L160.304 139.284L160.979 139.408C161.189 139.44 161.326 139.449 161.5 139.324L161.486 139.168C160.9 138.249 159.484 137.686 158.563 137.139C157.547 136.535 156.475 135.894 155.518 135.205C154.752 134.672 153.934 134.191 153.155 133.676C150.659 132.029 148.161 130.351 145.726 128.615C144.87 128.005 144.038 127.35 143.191 126.728C140.011 124.396 136.839 122.047 133.832 119.49C132.818 118.628 131.869 117.675 130.889 116.774C127.339 113.508 123.864 110.104 120.63 106.524C119.389 105.149 118.178 103.687 117.058 102.212C116.779 101.845 116.158 101.169 116.182 100.704C116.79 100.393 118.156 100.716 118.834 100.766C119.415 100.809 120.007 100.81 120.59 100.799C122.994 100.754 125.571 100.418 127.727 99.3147C127.484 99.1566 127.055 99.0165 126.762 99.0212C125.671 99.0385 124.574 99.389 123.503 99.579C122.193 99.8117 120.761 99.8835 119.429 99.8097C116.84 99.6662 114.505 99.0227 112.728 97.0206C112.02 96.2232 111.453 95.2704 110.92 94.3528C108.746 90.6044 107.361 86.2387 107.594 81.8754Z" fill="white"/>
</svg>
